<?xml version="1.0" encoding="utf-8"?>
<!-- Generator: Adobe Illustrator 27.3.1, SVG Export Plug-In . SVG Version: 6.00 Build 0)  -->
<svg version="1.1" id="Layer_1" xmlns="http://www.w3.org/2000/svg" xmlns:xlink="http://www.w3.org/1999/xlink" x="0px" y="0px"
	 viewBox="0 0 2048 2048" style="enable-background:new 0 0 2048 2048;" xml:space="preserve">
<style type="text/css">
	.st0{fill:none;}
	.st1{fill:#931E21;}
	.st2{fill:#045174;}
</style>
<g>
	<g>
		<path class="st0" d="M755.4,1463.14c-21.66-73.2-18.73-77.91,54.84-77.9c81.58,0.01,163.16,0,244.75,0c0,0.11,0,0.21,0,0.32
			c10.6,0,21.21-0.05,31.81-0.07l-46.19-192.25c-4.49,0.35-9.44,0.43-15.14,0.09c-45.81-2.79-92.27,4.89-140.33,8.06
			c-29.02-2.33-76.74,10.64-83.89-20.77c-7.23-31.79,17.58-69.19,51.13-93.42c54.53-39.39,113.07-47.43,156.13-27.61L948.52,809.9
			c-46.04,2.14-92.32,10.29-137.93,22.29c-288.08,75.79-393.93,358.36-373.85,603.44c20.59,251.23,221.49,349.48,416.42,383.41
			c110.92,19.31,225.06,23.61,336.86-3.87l-30.76-128.03C991.64,1734.48,812.19,1655.03,755.4,1463.14z"/>
		<path class="st1" d="M853.17,1819.03c-194.92-33.93-395.83-132.17-416.42-383.41c-20.08-245.08,85.77-527.64,373.85-603.44
			c45.6-12,91.89-20.15,137.93-22.29l-26.4-109.89c-103.42,3.12-205,27.86-286.89,69.03c-282.55,142.04-398.27,550.02-241.05,839.33
			c159.44,293.4,505.71,380.02,808.86,260.98l-13.02-54.19C1078.23,1842.65,964.08,1838.34,853.17,1819.03z"/>
		<path class="st1" d="M280.3,422.27c-123.56,36.34-172.38,116.68-149.45,241.36c9.81,53.32,23.13,106.06,36.35,158.69
			c3.58,14.25-2.44,37.16,17.8,40.26c19.14,2.93,22.99-19.05,31.11-31.95c91.37-145.14,214.71-255.81,376.47-315.77
			c88.99-32.99,179.52-52.73,270.81-59.35l-45.25-188.37C638.69,318.31,459.29,369.62,280.3,422.27z"/>
		<path class="st1" d="M1054.99,1385.25c-81.58,0-163.16,0.01-244.75,0c-73.57-0.01-76.5,4.7-54.84,77.9
			c56.78,191.89,236.24,271.33,403.87,224l-72.47-301.65c-10.6,0.03-21.21,0.07-31.81,0.07
			C1054.99,1385.46,1054.99,1385.35,1054.99,1385.25z"/>
		<path class="st1" d="M852.38,1087.2c-33.55,24.23-58.36,61.63-51.13,93.42c7.15,31.41,54.87,18.44,83.89,20.77
			c48.06-3.17,94.52-10.86,140.33-8.06c5.7,0.35,10.65,0.26,15.14-0.09l-32.11-133.65C965.44,1039.77,906.91,1047.82,852.38,1087.2z
			"/>
		<path class="st2" d="M1423.54,1785.46c121.38,16.85,236.96-14.63,351.87-49.52c157.99-47.96,205.08-138.75,162.95-297.93
			c-55.93-211.32-104.99-424.42-157.6-636.61c-48.3-194.79-94.55-390.14-147.35-583.74c-26.42-96.89-124.27-145.75-215.8-119.81
			c-156.73,44.42-313.77,87.81-470.43,132.48c-43.02,12.27-86.03,24.53-129.05,36.8l45.25,188.37
			c106.58-7.74,214.2,2.41,321.63,30.37c161.21,41.96,299.28,124.62,392.13,265.83c109.17,166.04,136.73,349.77,98.72,541.97
			c-50.14,253.56-192.76,430.61-447.37,510.84c-12.78,4.03-25.6,7.5-38.45,10.66l13.02,54.19c12.54-4.92,25.03-10.07,37.4-15.7
			C1299.71,1826.71,1347.89,1774.96,1423.54,1785.46z"/>
		<path class="st2" d="M1177.15,862.6c200.32,117.54,232.15,276.26,203.93,476.18c-4.66,33-21.29,48.02-56.89,47.35
			c-79.11-1.5-158.26-0.82-237.4-0.64l72.47,301.65c51.16-14.45,101.24-40.56,146.37-79.07
			c161.36-137.69,167.96-320.86,150.27-509.23c-9.82-104.59-56.45-193.41-134.57-267.09c-103.17-97.3-253.04-136.15-399.23-131.74
			l26.4,109.89C1027.04,806.26,1104.81,820.15,1177.15,862.6z"/>
		<path class="st2" d="M1067.86,1133.96c-9.36-36.25-31.02-61.32-59.35-74.37l32.11,133.65
			C1078.21,1190.34,1075.71,1164.34,1067.86,1133.96z"/>
	</g>
</g>
</svg>
